- 
http://www.Speed.Cd
 
http://www.Speed.Cd       the fast  and The Hottest Private Tracker on the net

Please Seed back to make the speed Faster!!
 ............ NFO .............
-[IMG]http://i.imgur.com/FT1Gjgb.jpg[/IMG]

Source: AC3.HDTV.1080p.x264-ARC

^^ disney logo bottom left, i left in. 
 
http://www.imdb.com/title/tt0120029/

Fred Z. Randall is geeky and obnoxious spacecraft designer, who gets the chance to make his dream come true and travel to Mars as a member of the first manned flight there.

General
Complete name                            : Rocketman 1997 HDTVRip x264 AAC-OFFLiNE.mp4
Format                                   : MPEG-4
Format profile                           : Base Media
Codec ID                                 : isom
File size                                : 700 MiB
Duration                                 : 1h 29mn
Overall bit rate mode                    : Variable
Overall bit rate                         : 1 087 Kbps
Encoded date                             : UTC 2013-03-03 23:04:52
Tagged date                              : UTC 2013-03-03 23:04:52

Video
ID                                       : 1
Format                                   : AVC
Format/Info                              : Advanced Video Codec
Format profile                           : High@L4.1
Format settings, CABAC                   : Yes
Format settings, ReFrames                : 3 frames
Codec ID                                 : avc1
Codec ID/Info                            : Advanced Video Coding
Duration                                 : 1h 29mn
Bit rate mode                            : Variable
Bit rate                                 : 957 Kbps
Maximum bit rate                         : 40.0 Mbps
Width                                    : 720 pixels
Height                                   : 400 pixels
Display aspect ratio                     : 16:9
Frame rate mode                          : Constant
Frame rate                               : 25.000 fps
Color space                              : YUV
Chroma subsampling                       : 4:2:0
Bit depth                                : 8 bits
Scan type                                : Progressive
Bits/(Pixel*Frame)                       : 0.133
Stream size                              : 615 MiB (88%)
Writing library                          : x264 core 130 r2273 b3065e6

Audio
ID                                       : 2
Format                                   : AAC
Format/Info                              : Advanced Audio Codec
Format profile                           : LC
Codec ID                                 : 40
Duration                                 : 1h 29mn
Bit rate mode                            : Variable
Bit rate                                 : 127 Kbps
Maximum bit rate                         : 161 Kbps
Channel(s)                               : 2 channels
Channel positions                        : Front: L R
Sampling rate                            : 48.0 KHz
Compression mode                         : Lossy
Stream size                              : 81.6 MiB (12%)
Language                                 : English
Encoded date                             : UTC 2013-03-03 20:08:17
Tagged date                              : UTC 2013-03-03 23:05:28

[IMG]http://i.imgur.com/5Vg3OjD.png[/IMG]
[IMG]http://i.imgur.com/sSeaBVF.png[/IMG]
[IMG]http://i.imgur.com/DyrJbzM.png[/IMG]
[IMG]http://i.imgur.com/sDrFXMK.png[/IMG]
[IMG]http://i.imgur.com/COGb4bf.png[/IMG]

Greets: To Our Friends